<svg id="Laag_1" data-name="Laag 1" xmlns="http://www.w3.org/2000/svg" viewBox="0 0 1286.53 664.74"><defs><style>.cls-1{fill:#fff;}.cls-1,.cls-4,.cls-5{stroke:#1d1d1b;}.cls-1,.cls-2,.cls-4,.cls-5{stroke-miterlimit:10;}.cls-2{font-size:258.17px;stroke:#6f6f6e;letter-spacing:0.01em;}.cls-2,.cls-3,.cls-5{fill:#6f6f6e;}.cls-2,.cls-3{font-family:MuktaVaani-Regular, Mukta Vaani;}.cls-3{font-size:210.37px;}.cls-4{fill:#868686;}</style></defs><rect class="cls-1" x="767.96" y="126.64" width="166.07" height="166.07"/><text class="cls-2" transform="translate(0.5 292.6) scale(0.67 1)">Duurzaam</text><text class="cls-3" transform="translate(950.89 292.59) scale(1.37 1)">u s</text><polygon class="cls-4" points="737.48 126.64 847.21 63.69 957.53 126.64 737.48 126.64"/><rect class="cls-5" x="777.03" y="142.64" width="29" height="134"/><rect class="cls-5" x="806.03" y="199.64" width="95" height="23"/><polyline class="cls-1" points="1110.2 97.84 992.53 109.22 1105.21 124.44"/><polyline class="cls-1" points="1167.55 118.75 1207.53 192.14 1138.54 138.4"/><polygon class="cls-5" points="1110 292.57 1166.53 292.57 1158.12 139.14 1122.22 139.14 1110 292.57"/><rect class="cls-5" x="891.03" y="143.64" width="29" height="134"/><path class="cls-1" d="M1271.5,450.5l62-75-36,95.2" transform="translate(-129.47 -372.86)"/><path class="cls-5" d="M1302.5,484.5a35,35,0,1,1-1-8.26A35,35,0,0,1,1302.5,484.5Z" transform="translate(-129.47 -372.86)"/><path class="cls-1" d="M1919.5,620.5" transform="translate(-129.47 -372.86)"/><path class="cls-1" d="M2067.5,583.5" transform="translate(-129.47 -372.86)"/></svg>