<?xml version="1.0" encoding="utf-8"?>
<!-- Generator: Adobe Illustrator 24.3.0, SVG Export Plug-In . SVG Version: 6.00 Build 0)  -->
<svg version="1.1" id="Laag_1" xmlns="http://www.w3.org/2000/svg" xmlns:xlink="http://www.w3.org/1999/xlink" x="0px" y="0px"
	 viewBox="0 0 1286.5 664.7" style="enable-background:new 0 0 1286.5 664.7;" xml:space="preserve">
<style type="text/css">
	.st0{fill:#FFFFFF;stroke:#1D1D1B;stroke-miterlimit:10;}
	.st1{fill:#6F6F6E;}
	.st2{font-family:'MuktaVaani-Regular';}
	.st3{font-size:258.17px;}
	.st4{letter-spacing:1.5;}
	.st5{fill:none;stroke:#6F6F6E;stroke-miterlimit:10;}
	.st6{font-size:210.37px;}
	.st7{fill:#868686;stroke:#1D1D1B;stroke-miterlimit:10;}
	.st8{fill:#6F6F6E;stroke:#1D1D1B;stroke-miterlimit:10;}
</style>
<rect x="768" y="126.6" class="st0" width="166.1" height="166.1"/>
<text transform="matrix(0.67 0 0 1 0.5 292.6001)" class="st1 st2 st3 st4">Duurzaam</text>
<text transform="matrix(0.67 0 0 1 0.5 292.6001)" class="st5 st2 st3 st4">Duurzaam</text>
<text transform="matrix(1.37 0 0 1 950.8896 292.5898)" class="st1 st2 st6">u s</text>
<polygon class="st7" points="737.5,126.6 847.2,63.7 957.5,126.6 "/>
<rect x="777" y="142.6" class="st8" width="29" height="134"/>
<rect x="806" y="199.6" class="st8" width="95" height="23"/>
<polyline class="st0" points="1110.2,97.8 992.5,109.2 1105.2,124.4 "/>
<polyline class="st0" points="1167.6,118.8 1207.5,192.1 1138.5,138.4 "/>
<polygon class="st8" points="1110,292.6 1166.5,292.6 1158.1,139.1 1122.2,139.1 "/>
<rect x="891" y="143.6" class="st8" width="29" height="134"/>
<path class="st0" d="M1142,77.6l62-75l-36,95.2"/>
<path class="st8" d="M1173,111.6c0,19.3-15.6,35-35,35s-35-15.6-35-35c0-19.3,15.6-35,35-35c16.1,0,30.2,11,34,26.7
	C1172.7,106.1,1173,108.9,1173,111.6z"/>
<path class="st0" d="M1790,247.6"/>
<path class="st0" d="M1938,210.6"/>
</svg>
